# File created by Blade
# Date/Time:  Tue Sep 30 19:35:54 2014
#---------------------------------------------------------
:version 1.10
:name HOM
:units
  mass 1.0
  length 1.000000
  angle deg
:documentation
     Acclaim Skeleton File
:root
   axis xyz
   order TX TY TZ RX RY RZ
   position 0.000000 0.000000 0.000000
   orientation 0 0 0
:bonedata
   begin
      id 1
      name Spine_dum
      direction 0.000000 1.000000 0.000000
      length 3.241213
      axis 0.0 0.0 0.0 xyz
   end
   begin
      id 2
      name LeftUpLeg_dum
      direction 1.000000 0.000000 0.000000
      length 3.434019
      axis 0.0 0.0 0.0 xyz
   end
   begin
      id 3
      name RightUpLeg_dum
      direction -1.000000 0.000000 0.000000
      length 3.434019
      axis 0.0 0.0 0.0 xyz
   end
   begin
      id 4
      name Spine
      direction 0.000000 1.000000 0.000000
      length 0.000000
      axis 0.0 0.0 0.0 xyz
      dof rx ry rz
   end
   begin
      id 5
      name Spine_dum1
      direction 0.000000 1.000000 0.000000
      length 18.382958
      axis 0.0 0.0 0.0 xyz
   end
   begin
      id 6
      name Spine_dum2
      direction 0.000000 1.000000 0.000000
      length 12.828261
      axis 0.0 0.0 0.0 xyz
   end
   begin
      id 7
      name Spine_dum3
      direction 0.000000 1.000000 0.000000
      length 12.828261
      axis 0.0 0.0 0.0 xyz
   end
   begin
      id 8
      name Head
      direction 0.000000 1.000000 0.000000
      length 4.527550
      axis 0.0 0.0 0.0 xyz
      dof rx ry rz
   end
   begin
      id 9
      name LeftShoulder
      direction 1.000000 0.000000 0.000000
      length 7.748055
      axis 0.0 0.0 -90.0 xyz
      dof rx ry rz
   end
   begin
      id 10
      name LeftArm
      direction 1.000000 0.000000 0.000000
      length 10.635614
      axis 0.0 0.0 -90.0 xyz
      dof rx ry rz
   end
   begin
      id 11
      name LeftForeArm
      direction 1.000000 0.000000 0.000000
      length 8.346755
      axis 0.0 0.0 -90.0 xyz
      dof ry rz rx
   end
   begin
      id 12
      name LeftHand
      direction 0.000000 0.000000 0.000000
      length 0.000000
      axis 0.0 0.0 -90.0 xyz
      dof rx ry rz
   end
   begin
      id 13
      name LeftHand_dum1
      direction 0.000000 0.000000 0.000000
      length 0.000000
      axis 0.0 0.0 -90.0 xyz
   end
   begin
      id 14
      name LeftHand_dum2
      direction 1.000000 0.000000 0.000000
      length 3.937000
      axis 0.0 0.0 -90.0 xyz
   end
   begin
      id 15
      name LeftHandThumb1
      direction 0.000000 0.000000 1.000000
      length 3.937000
      axis 0.0 0.0 -90.0 xyz
      dof rx rz ry
   end
   begin
      id 16
      name RightShoulder
      direction -1.000000 0.000000 0.000000
      length 7.748055
      axis 0.0 0.0 90.0 xyz
      dof rx ry rz
   end
   begin
      id 17
      name RightArm
      direction -1.000000 0.000000 0.000000
      length 10.635614
      axis 0.0 0.0 90.0 xyz
      dof rx ry rz
   end
   begin
      id 18
      name RightForeArm
      direction -1.000000 0.000000 0.000000
      length 8.346755
      axis 0.0 0.0 90.0 xyz
      dof ry rz rx
   end
   begin
      id 19
      name RightHand
      direction 0.000000 0.000000 0.000000
      length 0.000000
      axis 0.0 0.0 90.0 xyz
      dof rx ry rz
   end
   begin
      id 20
      name RightHand_dum1
      direction 0.000000 0.000000 0.000000
      length 0.000000
      axis 0.0 0.0 90.0 xyz
   end
   begin
      id 21
      name RightHand_dum2
      direction -1.000000 0.000000 0.000000
      length 3.937000
      axis 0.0 0.0 90.0 xyz
   end
   begin
      id 22
      name RightHandThumb1
      direction 0.000000 0.000000 1.000000
      length 3.937000
      axis 0.0 0.0 90.0 xyz
      dof rx rz ry
   end
   begin
      id 23
      name LeftUpLeg
      direction 0.000000 -1.000000 0.000000
      length 15.713025
      axis 0.0 0.0 0.0 xyz
      dof rx ry rz
   end
   begin
      id 24
      name LeftLeg
      direction 0.000000 -1.000000 0.000000
      length 14.435119
      axis 0.0 0.0 0.0 xyz
      dof rx ry rz
   end
   begin
      id 25
      name LeftFoot
      direction 0.000000 -0.258819 0.965926
      length 4.938895
      axis 15.0 0.0 0.0 xyz
      dof rx ry rz
   end
   begin
      id 26
      name LeftToeBase
      direction 0.000000 0.000000 1.000000
      length 2.952750
      axis 0.0 0.0 0.0 xyz
      dof rx ry rz
   end
   begin
      id 27
      name RightUpLeg
      direction 0.000000 -1.000000 0.000000
      length 15.713025
      axis 0.0 0.0 0.0 xyz
      dof rx ry rz
   end
   begin
      id 28
      name RightLeg
      direction 0.000000 -1.000000 0.000000
      length 14.435119
      axis 0.0 0.0 0.0 xyz
      dof rx ry rz
   end
   begin
      id 29
      name RightFoot
      direction 0.000000 -0.258819 0.965926
      length 4.938895
      axis 15.0 0.0 0.0 xyz
      dof rx ry rz
   end
   begin
      id 30
      name RightToeBase
      direction 0.000000 0.000000 1.000000
      length 2.952750
      axis 0.0 0.0 0.0 xyz
      dof rx ry rz
   end
:hierarchy
   begin
      root Spine_dum LeftUpLeg_dum RightUpLeg_dum
      Spine_dum Spine
      LeftUpLeg_dum LeftUpLeg
      RightUpLeg_dum RightUpLeg
      Spine Spine_dum1 Spine_dum2 Spine_dum3
      Spine_dum1 Head
      Spine_dum2 LeftShoulder
      Spine_dum3 RightShoulder
      LeftShoulder LeftArm
      LeftArm LeftForeArm
      LeftForeArm LeftHand
      LeftHand LeftHand_dum1 LeftHand_dum2
      LeftHand_dum1 LeftHandThumb1
      RightShoulder RightArm
      RightArm RightForeArm
      RightForeArm RightHand
      RightHand RightHand_dum1 RightHand_dum2
      RightHand_dum1 RightHandThumb1
      LeftUpLeg LeftLeg
      LeftLeg LeftFoot
      LeftFoot LeftToeBase
      RightUpLeg RightLeg
      RightLeg RightFoot
      RightFoot RightToeBase
   end

# File created by Blade
# Date/Time:  Tue Sep 23 19:15:59 2014
# Frame Rate: 120.000 fps
#------------------------------------------------------
:FULLY-SPECIFIED
:DEGREES
309
root 2.744787 32.838213 -2.312354 35.262882 -22.245999 -23.766815
Spine -36.863783 -8.695381 25.636257
Head 17.868094 -5.043321 -0.098134
LeftShoulder 4.536227 37.031592 28.289292
LeftArm 87.362062 20.582793 -46.703295
LeftForeArm 23.388997 -0.000000 69.571745
LeftHand 40.969603 0.000000 14.930407
LeftHandThumb1 -26.253704 0.000000 33.147579
RightShoulder -0.968853 -44.786853 -17.391878
RightArm 65.209178 -5.705156 68.062814
RightForeArm 36.565004 -0.000000 86.108104
RightHand 6.716511 -0.000000 13.794520
RightHandThumb1 -24.326973 -0.000000 -32.862282
LeftUpLeg -33.093519 9.268064 13.068315
LeftLeg 26.117238 -0.000000 -0.000000
LeftFoot -16.807489 13.254581 8.185110
LeftToeBase -1.440466 -0.000000 0.000000
RightUpLeg -172.315195 1.340307 21.324941
RightLeg 123.733206 -0.000000 -0.000000
RightFoot 35.351716 -16.292347 13.382000
RightToeBase 43.764269 -0.000000 -0.000000
310
root 2.766941 32.832198 -2.323509 35.302983 -22.331294 -23.676347
Spine -36.705260 -8.701894 25.582616
Head 17.289271 -4.970705 -0.071791
LeftShoulder 4.573035 37.180789 28.259394
LeftArm 87.246615 20.550883 -46.846415
LeftForeArm 23.085583 0.000000 69.573636
LeftHand 41.155764 0.000000 14.564232
LeftHandThumb1 -26.253704 0.000000 33.147579
RightShoulder -0.844797 -44.761113 -17.469979
RightArm 65.206758 -5.798241 68.208205
RightForeArm 36.293419 -0.000000 85.982205
RightHand 6.711341 -0.000000 13.842293
RightHandThumb1 -24.326973 -0.000000 -32.862282
LeftUpLeg -33.190248 9.301870 12.945853
LeftLeg 26.135171 -0.000000 -0.000000
LeftFoot -16.854459 13.039471 8.085030
LeftToeBase -1.446861 -0.000000 0.000000
RightUpLeg -172.057975 1.411954 21.237704
RightLeg 123.878372 -0.000000 -0.000000
RightFoot 35.315854 -16.402884 13.477284
RightToeBase 43.699868 -0.000000 -0.000000
311
root 2.786955 32.826912 -2.347128 35.485648 -22.495075 -23.622527
Spine -36.614542 -8.587972 25.479184
Head 16.711279 -4.919999 0.024570
LeftShoulder 4.619964 37.216363 28.300797
LeftArm 87.047920 20.601081 -47.058051
LeftForeArm 22.947586 -0.000000 69.566829
LeftHand 41.527613 -0.000000 13.961442
LeftHandThumb1 -26.253704 0.000000 33.147579
RightShoulder -0.733633 -44.841143 -17.512347
RightArm 65.284182 -5.845319 68.290955
RightForeArm 36.053214 -0.000000 85.897817
RightHand 6.654395 -0.000000 13.863745
RightHandThumb1 -24.326973 -0.000000 -32.862282
LeftUpLeg -33.421279 9.378566 12.812742
LeftLeg 26.185631 -0.000000 -0.000000
LeftFoot -16.855199 12.975089 8.055524
LeftToeBase -1.413164 -0.000000 0.000000
RightUpLeg -171.850049 1.663350 21.107028
RightLeg 123.950015 -0.000000 -0.000000
RightFoot 35.349396 -16.511494 13.473242
RightToeBase 43.698364 -0.000000 -0.000000
312
root 2.812041 32.820108 -2.364131 35.528470 -22.591489 -23.553762
Spine -36.410325 -8.581145 25.421137
Head 16.104874 -4.862683 0.067108
LeftShoulder 4.665869 37.367622 28.304981
LeftArm 86.947816 20.584580 -47.238625
LeftForeArm 22.799064 0.000000 69.552632
LeftHand 41.718627 -0.000000 13.561220
LeftHandThumb1 -26.253704 0.000000 33.147579
RightShoulder -0.664420 -44.877112 -17.520222
RightArm 65.350009 -5.884509 68.274880
RightForeArm 35.883902 -0.000000 85.765834
RightHand 6.732517 -0.000000 13.913840
RightHandThumb1 -24.326973 -0.000000 -32.862282
LeftUpLeg -33.532357 9.358613 12.701348
LeftLeg 26.215488 -0.000000 -0.000000
LeftFoot -16.813566 12.977505 8.121705
LeftToeBase -1.477392 -0.000000 0.000000
RightUpLeg -171.549692 1.801512 21.053160
RightLeg 124.067838 -0.000000 -0.000000
RightFoot 35.317455 -16.706228 13.751098
RightToeBase 43.533710 -0.000000 -0.000000
313
root 2.839278 32.807893 -2.382513 35.541846 -22.693384 -23.413220
Spine -36.207268 -8.607341 25.301231
Head 15.503671 -4.787032 0.130327
LeftShoulder 4.690674 37.596749 28.331748
LeftArm 86.935148 20.527402 -47.376477
LeftForeArm 22.715736 -0.000000 69.549643
LeftHand 41.897276 -0.000000 13.271529
LeftHandThumb1 -26.253704 0.000000 33.147579
RightShoulder -0.628305 -44.942170 -17.511552
RightArm 65.466859 -5.923573 68.225216
RightForeArm 35.701502 -0.000000 85.615654
RightHand 6.790905 -0.000000 13.843732
RightHandThumb1 -24.326973 -0.000000 -32.862282
LeftUpLeg -33.642651 9.297160 12.520591
LeftLeg 26.224070 -0.000000 -0.000000
LeftFoot -16.783355 13.013438 8.217212
LeftToeBase -1.448648 -0.000000 0.000000
RightUpLeg -171.286769 1.939984 20.954917
RightLeg 124.158682 -0.000000 -0.000000
RightFoot 35.336227 -16.801829 13.773007
RightToeBase 43.550744 -0.000000 -0.000000
314
root 2.867857 32.797974 -2.397598 35.582913 -22.768121 -23.298550
Spine -36.043967 -8.643533 25.267059
Head 14.944956 -4.660920 0.121707
LeftShoulder 4.740049 37.710472 28.355725
LeftArm 86.772633 20.580150 -47.646083
LeftForeArm 22.553396 -0.000000 69.577487
LeftHand 41.844338 -0.000000 12.951875
LeftHandThumb1 -26.253704 0.000000 33.147579
RightShoulder -0.521978 -44.948958 -17.547784
RightArm 65.507668 -5.943827 68.159849
RightForeArm 35.627135 -0.000000 85.518230
RightHand 6.671953 0.000000 13.814481
RightHandThumb1 -24.326973 -0.000000 -32.862282
LeftUpLeg -33.742589 9.249083 12.350457
LeftLeg 26.169880 -0.000000 -0.000000
LeftFoot -16.743414 13.065075 8.355270
LeftToeBase -1.398330 -0.000000 0.000000
RightUpLeg -171.049806 2.090546 20.909571
RightLeg 124.276538 -0.000000 -0.000000
RightFoot 35.353879 -16.881273 13.780097
RightToeBase 43.644949 -0.000000 -0.000000
315
root 2.901861 32.788620 -2.414935 35.663195 -22.903913 -23.186844
Spine -35.901732 -8.611123 25.214265
Head 14.446328 -4.533766 0.062895
LeftShoulder 4.801289 37.811503 28.369414
LeftArm 86.619189 20.620333 -47.890203
LeftForeArm 22.761768 -0.000000 69.548080
LeftHand 41.750458 -0.000000 13.049493
LeftHandThumb1 -26.253704 0.000000 33.147579
RightShoulder -0.414149 -44.922286 -17.593817
RightArm 65.531937 -5.988033 68.104724
RightForeArm 35.486712 -0.000000 85.355205
RightHand 6.794791 -0.000000 13.778747
RightHandThumb1 -24.326973 -0.000000 -32.862282
LeftUpLeg -33.844942 9.232864 12.134324
LeftLeg 26.055737 -0.000000 -0.000000
LeftFoot -16.664977 13.202410 8.657744
LeftToeBase -1.271958 -0.000000 0.000000
RightUpLeg -170.800970 2.299788 20.852858
RightLeg 124.357915 -0.000000 -0.000000
RightFoot 35.372043 -16.949043 13.844553
RightToeBase 43.657735 -0.000000 -0.000000
316
root 2.936824 32.782017 -2.432874 35.865824 -23.033580 -23.090343
Spine -35.881344 -8.517840 25.203246
Head 13.972609 -4.373095 -0.020973
LeftShoulder 4.879784 37.949333 28.388404
LeftArm 86.473092 20.646979 -48.129444
LeftForeArm 22.753511 0.000000 69.562086
LeftHand 41.743163 0.000000 12.909696
LeftHandThumb1 -26.253704 0.000000 33.147579
RightShoulder -0.299462 -44.920727 -17.665765
RightArm 65.561514 -6.012648 68.074035
RightForeArm 35.325590 -0.000000 85.212795
RightHand 6.833527 -0.000000 13.800232
RightHandThumb1 -24.326973 -0.000000 -32.862282
LeftUpLeg -34.045998 9.264545 11.919071
LeftLeg 25.906360 -0.000000 -0.000000
LeftFoot -16.554495 13.310873 8.920341
LeftToeBase -1.324911 -0.000000 0.000000
RightUpLeg -170.652517 2.517477 20.807311
RightLeg 124.452457 -0.000000 -0.000000
RightFoot 35.425779 -16.803114 13.914579
RightToeBase 43.671444 -0.000000 -0.000000
317
root 2.974184 32.774814 -2.452529 36.123627 -23.169050 -22.976765
Spine -35.933594 -8.442352 25.216993
Head 13.535217 -4.096121 -0.098485
LeftShoulder 4.901356 37.990581 28.392352
LeftArm 86.236372 20.756980 -48.450664
LeftForeArm 22.362841 0.000000 69.561524
LeftHand 41.978053 -0.000000 12.446226
LeftHandThumb1 -26.253704 0.000000 33.147579
RightShoulder -0.087549 -44.878289 -17.827902
RightArm 65.569414 -6.034643 68.073731
RightForeArm 35.238848 -0.000000 85.070278
RightHand 6.819048 -0.000000 13.860707
RightHandThumb1 -24.326973 -0.000000 -32.862282
LeftUpLeg -34.311378 9.253019 11.693547
LeftLeg 25.765895 -0.000000 -0.000000
LeftFoot -16.472605 13.403223 9.083824
LeftToeBase -1.219647 -0.000000 0.000000
RightUpLeg -170.592842 2.828869 20.778881
RightLeg 124.542770 -0.000000 -0.000000
RightFoot 35.476005 -16.920684 13.972568
RightToeBase 43.605940 -0.000000 -0.000000
